<svg width="140" height="60" viewBox="0 0 140 60" fill="none" xmlns="http://www.w3.org/2000/svg">
<g clip-path="url(#clip0_97_143)">
<rect x="2.5" y="2.5" width="135" height="55" rx="13.5" stroke="#A8E425" stroke-width="5"/>
<line x1="20" y1="47.5" x2="75" y2="47.5" stroke="#A8E425" stroke-width="5"/>
<line x1="106" y1="47.5" x2="121" y2="47.5" stroke="#A8E425" stroke-width="5"/>
<line x1="113.5" y1="45" x2="113.5" y2="40" stroke="#A8E425" stroke-width="5"/>
<path d="M24.4414 30H24.1534C23.5134 30 22.9774 29.952 22.5454 29.856C22.1294 29.76 21.7614 29.568 21.4414 29.28C21.1374 28.976 20.8974 28.64 20.7214 28.272C20.5614 27.904 20.4334 27.352 20.3374 26.616C20.1934 25.512 20.1214 24.032 20.1214 22.176C20.1214 20.304 20.1294 18.984 20.1454 18.216C20.1774 17.448 20.2414 16.704 20.3374 15.984C20.4334 15.248 20.5614 14.704 20.7214 14.352C20.8974 13.984 21.1374 13.656 21.4414 13.368C21.7614 13.064 22.1294 12.872 22.5454 12.792C22.9774 12.696 23.5134 12.648 24.1534 12.648H24.4414V30ZM25.4014 12.648H28.4494C29.6174 12.648 30.4974 12.848 31.0894 13.248C31.6974 13.648 32.0014 14.344 32.0014 15.336V17.496C32.0014 17.832 31.8894 18 31.6654 18H28.6414C28.4174 18 28.2814 17.968 28.2334 17.904C28.1854 17.84 28.1614 17.704 28.1614 17.496V15.624C28.1614 15.368 28.1214 15.192 28.0414 15.096C27.9774 14.984 27.8014 14.928 27.5134 14.928H25.4014V12.648ZM28.6414 24.648H31.6654C31.8894 24.648 32.0014 24.816 32.0014 25.152V27.312C32.0014 28.304 31.6974 29 31.0894 29.4C30.4974 29.8 29.6174 30 28.4494 30H25.4014V27.72H27.5134C27.8014 27.72 27.9774 27.672 28.0414 27.576C28.1214 27.464 28.1614 27.28 28.1614 27.024V25.152C28.1614 24.944 28.1854 24.808 28.2334 24.744C28.2814 24.68 28.4174 24.648 28.6414 24.648ZM38.8984 18H41.2264C41.8344 18 42.3304 18.032 42.7144 18.096C43.0984 18.144 43.4344 18.264 43.7224 18.456C44.0104 18.648 44.2264 18.864 44.3704 19.104C44.5144 19.328 44.6264 19.696 44.7064 20.208C44.8344 20.928 44.8984 21.936 44.8984 23.232C44.8984 24.528 44.8904 25.408 44.8744 25.872C44.8584 26.32 44.8264 26.8 44.7784 27.312C44.7464 27.824 44.6744 28.2 44.5624 28.44C44.4664 28.68 44.3304 28.928 44.1544 29.184C43.9944 29.424 43.7784 29.592 43.5064 29.688C42.9144 29.896 42.1544 30 41.2264 30H41.1784V20.952C41.1784 20.92 41.1784 20.824 41.1784 20.664C41.1784 20.504 41.1704 20.368 41.1544 20.256C41.0744 19.952 40.7544 19.8 40.1944 19.8H38.8984V18ZM38.1784 18V27.048C38.1784 27.08 38.1784 27.176 38.1784 27.336C38.1784 27.496 38.1944 27.632 38.2264 27.744C38.2904 28.048 38.6024 28.2 39.1624 28.2H40.4584V30H38.1304C37.5224 30 37.0264 29.976 36.6424 29.928C36.2584 29.864 35.9224 29.736 35.6344 29.544C35.3464 29.352 35.1304 29.144 34.9864 28.92C34.8424 28.68 34.7224 28.304 34.6264 27.792C34.5144 27.072 34.4584 26.064 34.4584 24.768C34.4584 23.472 34.4664 22.6 34.4824 22.152C34.4984 21.688 34.5224 21.2 34.5544 20.688C34.6024 20.176 34.6744 19.8 34.7704 19.56C34.8824 19.32 35.0184 19.08 35.1784 18.84C35.3544 18.584 35.5784 18.408 35.8504 18.312C36.4424 18.104 37.2024 18 38.1304 18H38.1784ZM53.349 19.8H52.053C51.637 19.8 51.365 19.856 51.237 19.968C51.125 20.08 51.069 20.264 51.069 20.52V27.504C51.069 27.744 51.125 27.92 51.237 28.032C51.365 28.144 51.637 28.2 52.053 28.2H53.349V30H51.021C49.437 30 48.461 29.728 48.093 29.184C47.917 28.928 47.773 28.68 47.661 28.44C47.565 28.2 47.501 27.824 47.469 27.312C47.389 26.384 47.349 25.352 47.349 24.216C47.349 23.08 47.357 22.264 47.373 21.768C47.389 21.256 47.437 20.744 47.517 20.232C47.613 19.704 47.733 19.328 47.877 19.104C48.021 18.864 48.237 18.648 48.525 18.456C48.813 18.264 49.149 18.144 49.533 18.096C49.917 18.032 50.413 18 51.021 18H53.349V19.8ZM54.069 12.648H55.533C56.237 12.648 56.765 12.824 57.117 13.176C57.485 13.512 57.669 13.952 57.669 14.496V28.152C57.669 28.696 57.485 29.144 57.117 29.496C56.765 29.832 56.237 30 55.533 30H54.069V12.648ZM63.9831 30H63.9351C62.3511 30 61.3751 29.728 61.0071 29.184C60.8311 28.928 60.6871 28.68 60.5751 28.44C60.4791 28.2 60.4151 27.824 60.3831 27.312C60.3031 26.384 60.2631 25.352 60.2631 24.216C60.2631 23.08 60.2711 22.264 60.2871 21.768C60.3031 21.256 60.3511 20.744 60.4311 20.232C60.5271 19.704 60.6471 19.328 60.7911 19.104C60.9351 18.864 61.1511 18.648 61.4391 18.456C61.7271 18.264 62.0631 18.144 62.4471 18.096C62.8311 18.032 63.3271 18 63.9351 18H63.9831V30ZM70.3671 26.208V27.432C70.3671 29.144 69.4951 30 67.7511 30H64.7271V28.2H66.0231C66.3591 28.2 66.5671 28.152 66.6471 28.056C66.7271 27.944 66.7671 27.752 66.7671 27.48V26.712C66.7671 26.472 66.7911 26.336 66.8391 26.304C66.9031 26.272 66.9431 26.256 66.9591 26.256C66.9751 26.24 67.0151 26.232 67.0791 26.232C67.1591 26.216 67.2151 26.208 67.2471 26.208C68.2871 26.208 69.3271 26.208 70.3671 26.208ZM64.7271 18H67.5111C68.6151 18 69.3671 18.216 69.7671 18.648C70.1671 19.08 70.3671 19.72 70.3671 20.568V22.68C70.3671 24.12 69.5831 24.84 68.0151 24.84H64.4871V23.04H65.7831C66.1671 23.04 66.4231 22.992 66.5511 22.896C66.6951 22.8 66.7671 22.616 66.7671 22.344V20.52C66.7671 20.248 66.7271 20.064 66.6471 19.968C66.5671 19.856 66.3591 19.8 66.0231 19.8H64.7271V18ZM72.1078 12.648H79.6198C79.8758 12.648 80.0838 12.736 80.2438 12.912C80.4038 13.088 80.4838 13.32 80.4838 13.608V30H77.9638C77.4198 30 77.0598 29.912 76.8838 29.736C76.7238 29.56 76.6438 29.192 76.6438 28.632V15.648H72.8038C72.3398 15.648 72.1078 15.264 72.1078 14.496V12.648ZM81.4438 12.648H85.2838C85.7478 12.648 85.9798 13.032 85.9798 13.8V15.648H81.4438V12.648ZM85.4378 18H88.1738C88.4298 18 88.6378 18.088 88.7978 18.264C88.9578 18.44 89.0378 18.672 89.0378 18.96V27.48C89.0378 27.736 89.0938 27.92 89.2058 28.032C89.3338 28.144 89.6058 28.2 90.0218 28.2H91.3178V30H88.0538C86.3098 30 85.4378 29.144 85.4378 27.432V18ZM89.2778 31.536V32.808C89.2778 33.08 89.3178 33.264 89.3978 33.36C89.4778 33.472 89.6858 33.528 90.0218 33.528H91.3178V35.328H88.2938C86.5498 35.328 85.6777 34.472 85.6777 32.76V32.04C85.6777 31.8 85.7018 31.664 85.7498 31.632C85.8138 31.6 85.8538 31.576 85.8698 31.56C85.8858 31.56 85.9258 31.552 85.9898 31.536C86.0698 31.536 86.1258 31.536 86.1578 31.536C87.1978 31.536 88.2378 31.536 89.2778 31.536ZM92.0378 18H93.5018C94.2058 18 94.7338 18.176 95.0858 18.528C95.4538 18.864 95.6378 19.304 95.6378 19.848V33.504C95.6378 34.048 95.4538 34.488 95.0858 34.824C94.7338 35.176 94.2058 35.352 93.5018 35.352H92.0378V18ZM102.696 18H105.024C106.608 18 107.584 18.272 107.952 18.816C108.128 19.072 108.264 19.32 108.36 19.56C108.472 19.8 108.544 20.176 108.576 20.688C108.656 21.616 108.696 22.648 108.696 23.784C108.696 24.92 108.688 25.744 108.672 26.256C108.656 26.752 108.6 27.264 108.504 27.792C108.424 28.304 108.312 28.68 108.168 28.92C108.024 29.144 107.808 29.352 107.52 29.544C107.232 29.736 106.896 29.864 106.512 29.928C106.128 29.976 105.632 30 105.024 30H102.696V28.2H103.992C104.408 28.2 104.672 28.144 104.784 28.032C104.912 27.92 104.976 27.744 104.976 27.504V20.52C104.976 20.264 104.912 20.08 104.784 19.968C104.672 19.856 104.408 19.8 103.992 19.8H102.696V18ZM101.976 35.352H100.512C99.8078 35.352 99.2718 35.176 98.9038 34.824C98.5518 34.488 98.3758 34.048 98.3758 33.504V19.848C98.3758 19.304 98.5518 18.864 98.9038 18.528C99.2718 18.176 99.8078 18 100.512 18H101.976V35.352ZM114.866 30H114.818C113.234 30 112.258 29.728 111.89 29.184C111.714 28.928 111.57 28.68 111.458 28.44C111.362 28.2 111.298 27.824 111.266 27.312C111.186 26.384 111.146 25.352 111.146 24.216C111.146 23.08 111.154 22.264 111.17 21.768C111.186 21.256 111.234 20.744 111.314 20.232C111.41 19.704 111.53 19.328 111.674 19.104C111.818 18.864 112.034 18.648 112.322 18.456C112.61 18.264 112.946 18.144 113.33 18.096C113.714 18.032 114.21 18 114.818 18H114.866V30ZM121.25 26.208V27.432C121.25 29.144 120.378 30 118.634 30H115.61V28.2H116.906C117.242 28.2 117.45 28.152 117.53 28.056C117.61 27.944 117.65 27.752 117.65 27.48V26.712C117.65 26.472 117.674 26.336 117.722 26.304C117.786 26.272 117.826 26.256 117.842 26.256C117.858 26.24 117.898 26.232 117.962 26.232C118.042 26.216 118.098 26.208 118.13 26.208C119.17 26.208 120.21 26.208 121.25 26.208ZM115.61 18H118.394C119.498 18 120.25 18.216 120.65 18.648C121.05 19.08 121.25 19.72 121.25 20.568V22.68C121.25 24.12 120.466 24.84 118.898 24.84H115.37V23.04H116.666C117.05 23.04 117.306 22.992 117.434 22.896C117.578 22.8 117.65 22.616 117.65 22.344V20.52C117.65 20.248 117.61 20.064 117.53 19.968C117.45 19.856 117.242 19.8 116.906 19.8H115.61V18Z" fill="#A8E425"/>
</g>
<defs>
<clipPath id="clip0_97_143">
<rect width="140" height="60" fill="white"/>
</clipPath>
</defs>
</svg>
